<?xml version="1.0" encoding="UTF-8" standalone="no"?>
<!DOCTYPE svg PUBLIC "-//W3C//DTD SVG 1.1//EN" "http://www.w3.org/Graphics/SVG/1.1/DTD/svg11.dtd">
<svg width="100%" height="100%" viewBox="0 0 2000 500" version="1.1" xmlns="http://www.w3.org/2000/svg" xmlns:xlink="http://www.w3.org/1999/xlink" xml:space="preserve" xmlns:serif="http://www.serif.com/" style="fill-rule:evenodd;clip-rule:evenodd;stroke-linejoin:round;stroke-miterlimit:2;">
    <g transform="matrix(110,0,0,1.259836,-8020,-35.667307)">
        <g>
            <g transform="matrix(0.019574,0,0,1.870101,65.920183,-82.752167)">
                <ellipse cx="821.5" cy="165.5" rx="104.5" ry="95.5"/>
            </g>
            <g transform="matrix(0.005458,0,0,0.440975,80.04878,21.696454)">
                <ellipse cx="357.5" cy="465" rx="266.5" ry="288" style="fill:white;"/>
            </g>
            <g transform="matrix(0.003367,0,0,0.293983,79.65674,223.028765)">
                <path d="M698.722,400.497C619.788,400.497 554.899,389.119 504.055,366.363C453.21,343.608 416.233,313.919 393.122,277.297C370.01,240.674 358.455,200.674 358.455,157.297C358.455,123.163 366.988,91.519 384.055,62.363C401.122,33.208 423.522,10.808 451.255,-4.837C407.166,-36.837 385.122,-83.059 385.122,-143.503C385.122,-184.037 395.433,-221.192 416.055,-254.97C436.677,-288.748 470.455,-315.948 517.388,-336.57C564.322,-357.192 624.766,-367.503 698.722,-367.503C806.099,-367.503 884.677,-346.348 934.455,-304.037C984.233,-261.726 1009.122,-208.926 1009.122,-145.637C1009.122,-84.481 988.144,-37.548 946.188,-4.837C975.344,9.386 998.455,31.43 1015.522,61.297C1032.588,91.163 1041.122,123.874 1041.122,159.43C1041.122,202.097 1029.388,241.741 1005.922,278.363C982.455,314.986 945.122,344.497 893.922,366.897C842.722,389.297 777.655,400.497 698.722,400.497ZM698.722,-72.037C719.344,-72.037 735.877,-77.548 748.322,-88.57C760.766,-99.592 766.988,-113.281 766.988,-129.637C766.988,-145.992 760.766,-159.681 748.322,-170.703C735.877,-181.726 719.344,-187.237 698.722,-187.237C678.099,-187.237 661.744,-181.726 649.655,-170.703C637.566,-159.681 631.522,-145.992 631.522,-129.637C631.522,-113.281 637.566,-99.592 649.655,-88.57C661.744,-77.548 678.099,-72.037 698.722,-72.037ZM698.722,221.297C720.766,221.297 738.722,215.608 752.588,204.23C766.455,192.852 773.388,177.563 773.388,158.363C773.388,139.163 766.455,123.874 752.588,112.497C738.722,101.119 720.766,95.43 698.722,95.43C676.677,95.43 658.722,101.119 644.855,112.497C630.988,123.874 624.055,139.163 624.055,158.363C624.055,177.563 630.988,192.852 644.855,204.23C658.722,215.608 676.677,221.297 698.722,221.297Z" style="fill-rule:nonzero;"/>
            </g>
        </g>
    </g>
</svg>
